<?xml version="1.0" encoding="utf-8"?>
<!-- Generator: Adobe Illustrator 26.5.0, SVG Export Plug-In . SVG Version: 6.00 Build 0)  -->
<svg version="1.1" id="Layer_1" xmlns="http://www.w3.org/2000/svg" xmlns:xlink="http://www.w3.org/1999/xlink" x="0px" y="0px"
	 viewBox="0 0 3888.3 672.9" style="enable-background:new 0 0 3888.3 672.9;" xml:space="preserve">
<style type="text/css">
	.st0{fill:#4743B9;}
	.st1{display:none;fill:#4743B9;}
</style>
<g>
	<path d="M1058.9,556.4l63.6-319.4h-126l15.1-74.3h343l-15.1,74.3h-125.4l-64.2,319.4H1058.9z"/>
	<path d="M1319.2,556.4l60.1-302.5h87.2l-60,302.5H1319.2z M1437.9,211.7c-15.4,0-27.8-4.4-37.1-13.2c-9.4-8.8-14-19.6-14-32.4
		c0-15,5.4-27.4,16.1-37.4s24.7-14.9,41.9-14.9c15.4,0,27.9,4.2,37.4,12.6s14.3,18.8,14.3,31.2c0,16.1-5.4,29.2-16.1,39.1
		C1469.7,206.7,1455.6,211.7,1437.9,211.7z"/>
	<path d="M1647.7,560.9c-31.1,0-58.2-5.6-81.3-16.9c-23.1-11.2-41-27-53.7-47.3c-12.7-20.2-19.2-44.1-19.2-71.4
		c0-33.7,7.9-63.8,23.6-90.2s37.5-47.3,65.2-62.7c27.8-15.4,59.6-23.1,95.6-23.1c32.2,0,60.1,6.7,83.8,20
		c23.6,13.3,41.1,32.1,52.3,56.5l-74.3,37.1c-6.4-14.2-15.3-24.7-26.7-31.2c-11.5-6.5-25-9.9-40.7-9.9c-17.2,0-32.6,4.2-46.1,12.6
		c-13.5,8.5-24.2,20.1-32,34.9c-7.9,14.8-11.8,32-11.8,51.4c0,20.7,6.1,37.1,18.2,49.2c12.2,12.2,29.5,18.2,52,18.2
		c15.4,0,29.4-3.3,42.2-9.9c12.7-6.5,23.4-16.8,32-30.6l64.7,40.5c-14.2,22.8-34,40.6-59.3,53.4
		C1707,554.5,1678.8,560.9,1647.7,560.9z"/>
	<path d="M1818.1,556.4l83.2-417.3h87.7l-83.2,417.3H1818.1z M1905.8,495.6L1925,387l162.5-133.2h114.2L2032.4,395l-48.9,36
		L1905.8,495.6z M2045.8,556.4l-77.6-127.2l61.3-66.9l118.1,194L2045.8,556.4L2045.8,556.4z"/>
	<path class="st0" d="M2328.7,560.9c-31.4,0-58.8-5.6-81.8-16.9s-41-27-53.7-47.3c-12.7-20.2-19.2-44.1-19.2-71.4
		c0-33.7,7.6-63.8,22.7-90.2c15.1-26.4,36.2-47.3,63-62.7c26.9-15.4,57.6-23.1,92.5-23.1c29.6,0,55.1,5.5,76.4,16.6
		c21.3,11,38,26.4,49.8,46.1s17.7,43.3,17.7,70.6c0,7.9-0.5,15.7-1.4,23.6s-2.2,15.4-3.7,22.5h-250.2l9-51.2H2450l-36,15.7
		c3-16.9,2.1-31-2.8-42.5c-4.8-11.5-12.7-20.2-23.6-26.4c-10.9-6.2-24-9.3-39.4-9.3c-19.2,0-35.3,4.6-48.7,13.8
		c-13.3,9.2-23.3,21.8-30.1,38c-6.8,16.1-10.1,34.3-10.1,54.5c0,23.3,6.4,40.6,19.4,52c13,11.5,32.5,17.1,58.8,17.1
		c15.4,0,30.2-2.4,44.4-7.3c14.2-4.8,26.4-11.8,36.5-20.8l36.6,58c-17.7,13.9-37.4,24.1-59.3,30.6
		C2374,557.6,2351.6,560.9,2328.7,560.9z"/>
	<path class="st0" d="M2521,556.4l60.1-302.5h83.2l-17.4,86.1l-7.9-24.8c13.5-24.3,31.1-41.4,52.9-51.2
		c21.7-9.8,47.9-14.6,78.2-14.6l-15.7,81c-3.8-0.3-7.2-0.7-10.4-0.8c-3.2-0.2-6.4-0.2-9.9-0.2c-25.8,0-46.9,6.4-63.2,19.2
		c-16.3,12.7-27.3,33.4-32.9,61.9l-29.3,146.2H2521V556.4z"/>
	<path d="M2895,560.9c-23.3,0-44.8-5.4-64.6-16.1c-19.9-10.7-35.8-26.2-47.9-46.4s-18-44.6-18-73.1c0-25.5,4.2-48.9,12.6-70.2
		c8.5-21.3,20.3-39.9,35.7-55.7c15.4-15.7,33.2-28,53.4-36.8c20.2-8.8,42-13.2,65.2-13.2c25.1,0,46.7,4.7,64.6,14
		c18,9.4,31.4,23.9,40.2,43.6s11.9,45.1,9.3,76.2c-1.8,35.6-9.2,66.8-21.9,93.7c-12.7,26.9-30,47.5-51.4,62.1
		C2950.8,553.6,2925,560.9,2895,560.9z M2922,488.4c17.2,0,32.5-4.2,45.8-12.6s23.8-20.1,31.4-34.9s11.5-32.1,11.5-52
		c0-20.7-6.1-37-18.2-48.9c-12.2-12.1-29.2-18-50.8-18c-16.9,0-32,4.2-45.6,12.6c-13.5,8.5-24.1,20.1-31.8,34.9s-11.5,32.1-11.5,52
		c0,20.7,6.1,37,18.2,48.9C2883.3,482.4,2900.3,488.4,2922,488.4z M2982.2,556.4l11.8-60.1l19.6-90l11.8-90l12.4-62.4h87.7
		l-60.1,302.5H2982.2L2982.2,556.4z"/>
	<path d="M3146.3,556.4l83.2-417.3h87.7L3234,556.4H3146.3z"/>
	<path d="M3315.6,556.4l60.1-302.5h87.2l-60,302.5H3315.6z M3434.3,211.7c-15.4,0-27.8-4.4-37.1-13.2c-9.4-8.8-14-19.6-14-32.4
		c0-15,5.4-27.4,16.1-37.4c10.7-10,24.7-14.9,41.9-14.9c15.4,0,27.9,4.2,37.4,12.6s14.3,18.8,14.3,31.2c0,16.1-5.4,29.2-16.1,39.1
		C3466.1,206.7,3452,211.7,3434.3,211.7z"/>
	<path d="M3621,560.9c-23.3,0-44.8-5.4-64.6-16.1c-19.9-10.7-35.8-26.2-47.9-46.4s-18-44.6-18-73.1c0-25.5,4.2-48.9,12.6-70.2
		c8.5-21.3,20.3-39.9,35.7-55.7c15.4-15.7,33.2-28,53.4-36.8c20.2-8.8,42-13.2,65.2-13.2c25.1,0,46.7,4.7,64.6,14
		c18,9.4,31.4,23.9,40.2,43.6s11.9,45.1,9.3,76.2c-1.8,35.6-9.2,66.8-21.9,93.7c-12.7,26.9-30,47.5-51.4,62.1
		C3676.8,553.6,3651,560.9,3621,560.9z M3648,488.4c17.2,0,32.5-4.2,45.8-12.6s23.8-20.1,31.4-34.9s11.5-32.1,11.5-52
		c0-20.7-6.1-37-18.2-48.9c-12.2-12.1-29.2-18-50.8-18c-16.9,0-32,4.2-45.6,12.6c-13.5,8.5-24.1,20.1-31.8,34.9s-11.5,32.1-11.5,52
		c0,20.7,6.1,37,18.2,48.9C3609.3,482.4,3626.3,488.4,3648,488.4z M3708.1,556.4l11.8-60.1l19.6-90l11.8-90l12.4-62.4h87.7
		l-60.1,302.5H3708.1L3708.1,556.4z"/>
</g>
<path class="st1" d="M723.2,214c-0.1-0.5-0.1-1,0-1.5c0.1-0.6,0.4-1.1,0.8-1.6c2.6-6.8,9.8-11,17.2-9.4l17.2-84.1l-7.4-1.5
	c-1.5,7.2-8.5,11.8-15.6,10.3c-7.2-1.5-11.8-8.5-10.3-15.6l-12.4-2.5c-1.5,7.2-8.5,11.8-15.6,10.3c-7.2-1.5-11.8-8.5-10.3-15.6
	l-12.4-2.5c-1.5,7.2-8.5,11.8-15.6,10.3c-7.2-1.5-11.8-8.5-10.3-15.6l-12.4-2.5c-1.5,7.2-8.5,11.8-15.6,10.3
	c-7.2-1.5-11.8-8.5-10.3-15.6l-12.4-2.5c-1.5,7.2-8.5,11.8-15.6,10.3c-7.2-1.5-11.8-8.5-10.3-15.6l-12.4-2.5
	c-1.5,7.2-8.5,11.8-15.6,10.3s-11.8-8.5-10.3-15.6l-7.4-1.5L509,154.2c6.7,1.4,11.4,7,12,13.4c1.8,0.5,3,2.4,2.6,4.3
	c-0.4,1.8-1.9,2.9-3.6,2.9c-2.7,6.6-9.8,10.6-17.1,9.1l-88,429.9l7.4,1.5c1.5-7.2,8.5-11.8,15.6-10.3c7.2,1.5,11.8,8.5,10.3,15.6
	l12.4,2.5c1.5-7.2,8.5-11.8,15.6-10.3c7.2,1.5,11.8,8.5,10.3,15.6l12.4,2.5c1.5-7.2,8.5-11.8,15.6-10.3c7.2,1.5,11.8,8.5,10.3,15.6
	l12.4,2.5c1.5-7.2,8.5-11.8,15.6-10.3c7.2,1.5,11.8,8.5,10.3,15.6l12.4,2.5c1.5-7.2,8.5-11.8,15.6-10.3c7.2,1.5,11.8,8.5,10.3,15.6
	l12.4,2.5c1.5-7.2,8.5-11.8,15.6-10.3c7.2,1.5,11.8,8.5,10.3,15.6l7.4,1.5l88-429.9C727.1,229.6,721.9,222,723.2,214z M530.3,176.8
	c-2-0.4-3.3-2.4-2.9-4.4s2.4-3.3,4.4-2.9c2,0.4,3.3,2.4,2.9,4.4S532.3,177.2,530.3,176.8z M541.8,179.2c-2-0.4-3.3-2.4-2.9-4.4
	c0.4-2,2.4-3.3,4.4-2.9c2,0.4,3.3,2.4,2.9,4.4S543.8,179.6,541.8,179.2z M553.3,181.5c-2-0.4-3.3-2.4-2.9-4.4s2.4-3.3,4.4-2.9
	c2,0.4,3.3,2.4,2.9,4.4S555.3,182,553.3,181.5z M564.8,183.9c-2-0.4-3.3-2.4-2.9-4.4s2.4-3.3,4.4-2.9c2,0.4,3.3,2.4,2.9,4.4
	C568.8,183,566.8,184.3,564.8,183.9z M576.3,186.3c-2-0.4-3.3-2.4-2.9-4.4c0.4-2,2.4-3.3,4.4-2.9c2,0.4,3.3,2.4,2.9,4.4
	S578.3,186.7,576.3,186.3z M587.8,188.6c-2-0.4-3.3-2.4-2.9-4.4s2.4-3.3,4.4-2.9c2,0.4,3.3,2.4,2.9,4.4S589.9,189,587.8,188.6z
	 M599.4,191c-2-0.4-3.3-2.4-2.9-4.4s2.4-3.3,4.4-2.9c2,0.4,3.3,2.4,2.9,4.4S601.4,191.4,599.4,191z M610.9,193.3
	c-2-0.4-3.3-2.4-2.9-4.4s2.4-3.3,4.4-2.9c2,0.4,3.3,2.4,2.9,4.4S612.9,193.8,610.9,193.3z M622.4,195.7c-2-0.4-3.3-2.4-2.9-4.4
	s2.4-3.3,4.4-2.9s3.3,2.4,2.9,4.4S624.4,196.1,622.4,195.7z M633.9,198.1c-2-0.4-3.3-2.4-2.9-4.4s2.4-3.3,4.4-2.9
	c2,0.4,3.3,2.4,2.9,4.4S635.9,198.5,633.9,198.1z M645.4,200.4c-2-0.4-3.3-2.4-2.9-4.4c0.4-2,2.4-3.3,4.4-2.9c2,0.4,3.3,2.4,2.9,4.4
	S647.4,200.8,645.4,200.4z M656.9,202.8c-2-0.4-3.3-2.4-2.9-4.4s2.4-3.3,4.4-2.9c2,0.4,3.3,2.4,2.9,4.4S659,203.2,656.9,202.8z
	 M668.5,205.1c-2-0.4-3.3-2.4-2.9-4.4s2.4-3.3,4.4-2.9c2,0.4,3.3,2.4,2.9,4.4C672.4,204.2,670.5,205.5,668.5,205.1z M680,207.5
	c-2-0.4-3.3-2.4-2.9-4.4c0.4-2,2.4-3.3,4.4-2.9c2,0.4,3.3,2.4,2.9,4.4S682,207.9,680,207.5z M691.5,209.9c-2-0.4-3.3-2.4-2.9-4.4
	s2.4-3.3,4.4-2.9c2,0.4,3.3,2.4,2.9,4.4S693.5,210.3,691.5,209.9z M703,212.2c-2-0.4-3.3-2.4-2.9-4.4s2.4-3.3,4.4-2.9
	c2,0.4,3.3,2.4,2.9,4.4S705,212.6,703,212.2z M714.5,214.6c-2-0.4-3.3-2.4-2.9-4.4s2.4-3.3,4.4-2.9c2,0.4,3.3,2.4,2.9,4.4
	S716.6,215,714.5,214.6z"/>
<path class="st1" d="M196.4,186.2l88,429.9l7.4-1.5c-1.5-7.2,3.1-14.2,10.3-15.6c7.2-1.5,14.2,3.1,15.6,10.3l12.4-2.5
	c-1.5-7.2,3.1-14.2,10.3-15.6c7.2-1.5,14.2,3.1,15.6,10.3l12.4-2.5c-1.5-7.2,3.1-14.2,10.3-15.6c7.2-1.5,14.2,3.1,15.6,10.3
	l12.4-2.5c-1.5-7.2,3.1-14.2,10.3-15.6c7.2-1.5,14.2,3.1,15.6,10.3l12.4-2.5c-1.5-7.2,3.1-14.2,10.3-15.6
	c7.2-1.5,14.2,3.1,15.6,10.3l12.4-2.5c-1.5-7.2,3.1-14.2,10.3-15.6c7.2-1.5,14.2,3.1,15.6,10.3l7.4-1.5l-88-429.9
	c-7.3,1.5-16.5-2.7-17.7-11.7c-1.3-9.5,4.9-16.7,11.6-18l-17.2-84.1l-7.4,1.5c1.5,7.2-3.1,14.2-10.3,15.6
	c-7.2,1.5-14.2-3.1-15.6-10.3l-12.4,2.5c1.5,7.2-3.1,14.2-10.3,15.6c-7.2,1.5-14.2-3.1-15.6-10.3L321.5,42
	c1.5,7.2-3.1,14.2-10.3,15.6c-7.2,1.5-14.2-3.1-15.6-10.3l-12.4,2.5c1.5,7.2-3.1,14.2-10.3,15.6c-7.2,1.5-14.2-3.1-15.6-10.3
	l-12.4,2.5c1.5,7.2-3.1,14.2-10.3,15.6c-7.2,1.5-14.2-3.1-15.6-10.3l-12.4,2.5c1.5,7.2-3.1,14.2-10.3,15.6
	c-7.2,1.5-14.2-3.1-15.6-10.3l-7.4,1.5l17.2,84.1c7.4-1.5,14.6,2.6,17.2,9.4c0.4,0.5,0.7,1,0.8,1.6c0.1,0.5,0.1,1,0,1.5
	C209.5,177,204.3,184.6,196.4,186.2z M395.5,129.2c-0.6-2.9,1.3-5.8,4.2-6.4c2.9-0.6,5.8,1.3,6.4,4.2c0.6,2.9-1.3,5.8-4.2,6.4
	C398.9,134,396.1,132.1,395.5,129.2z M378.8,132.6c-0.6-2.9,1.3-5.8,4.2-6.4c2.9-0.6,5.8,1.3,6.4,4.2c0.6,2.9-1.3,5.8-4.2,6.4
	C382.2,137.4,379.4,135.5,378.8,132.6z M362.1,136c-0.6-2.9,1.3-5.8,4.2-6.4c2.9-0.6,5.8,1.3,6.4,4.2s-1.3,5.8-4.2,6.4
	C365.6,140.8,362.7,138.9,362.1,136z M345.5,139.4c-0.6-2.9,1.3-5.8,4.2-6.4c2.9-0.6,5.8,1.3,6.4,4.2c0.6,2.9-1.3,5.8-4.2,6.4
	S346.1,142.3,345.5,139.4z M328.8,142.8c-0.6-2.9,1.3-5.8,4.2-6.4c2.9-0.6,5.8,1.3,6.4,4.2s-1.3,5.8-4.2,6.4
	C332.2,147.6,329.4,145.7,328.8,142.8z M312.1,146.2c-0.6-2.9,1.3-5.8,4.2-6.4c2.9-0.6,5.8,1.3,6.4,4.2c0.6,2.9-1.3,5.8-4.2,6.4
	C315.6,151,312.7,149.1,312.1,146.2z M295.5,149.6c-0.6-2.9,1.3-5.8,4.2-6.4c2.9-0.6,5.8,1.3,6.4,4.2s-1.3,5.8-4.2,6.4
	C298.9,154.4,296.1,152.5,295.5,149.6z M278.8,153c-0.6-2.9,1.3-5.8,4.2-6.4s5.8,1.3,6.4,4.2s-1.3,5.8-4.2,6.4
	C282.2,157.8,279.4,156,278.8,153z M262.1,156.5c-0.6-2.9,1.3-5.8,4.2-6.4c2.9-0.6,5.8,1.3,6.4,4.2s-1.3,5.8-4.2,6.4
	C265.6,161.3,262.7,159.4,262.1,156.5z M245.5,159.9c-0.6-2.9,1.3-5.8,4.2-6.4c2.9-0.6,5.8,1.3,6.4,4.2s-1.3,5.8-4.2,6.4
	C248.9,164.7,246.1,162.8,245.5,159.9z M228.8,163.3c-0.6-2.9,1.3-5.8,4.2-6.4s5.8,1.3,6.4,4.2c0.6,2.9-1.3,5.8-4.2,6.4
	S229.4,166.2,228.8,163.3z M212.1,166.7c-0.6-2.9,1.3-5.8,4.2-6.4c2.9-0.6,5.8,1.3,6.4,4.2c0.6,2.9-1.3,5.8-4.2,6.4
	C215.6,171.5,212.7,169.6,212.1,166.7z"/>
<g>
	<path class="st0" d="M492.5,134.8c0.3,0.4-9.6,5.7-9.7,5.2c-8.7,2.3-17.8-0.7-23.6-7.5L68.4,331.1c-19.4,9.8-33.2,26.4-39.9,45.3
		c6.1,3,11.3,7.8,14.6,14.3c8,15.8,1.8,34.9-13.8,43c1,2.5,2,4.8,3.3,7.3L43,461.4c15.8-8.1,35.2-1.7,43.2,14.1
		c8.1,15.8,1.7,35.2-14.1,43.2l13.9,27.7c15.8-8.1,35.2-1.7,43.2,14.1c8.1,15.8,1.7,35.2-14.1,43.2l10.4,20.4c1.3,2.4,2.5,4.7,4,7
		c15.8-7.8,34.9-1.5,42.9,14.3c3.2,6.5,4.1,13.6,3,20.2c19.3,5.7,40.8,4.4,60.2-5.5l390.8-198.5c-1.2-1.4-2.5-2.8-3.2-4.7
		c-4-10.8-0.5-23.1,11.1-29c11.6-5.9,24.6-2.9,30.6,7.3c0.7,1.3,2.1,3.7,2.2,5.7l191.6-97.3c19.4-9.8,33.2-26.4,39.9-45.3
		c-6.1-3-11.3-7.8-14.6-14.3c-8-15.8-1.8-34.9,13.8-43c-1-2.5-2-4.8-3.3-7.3l-10.4-20.4c-15.8,8.1-35.2,1.7-43.2-14.1
		c-8.1-15.8-1.7-35.2,14.1-43.2l-14-27.6c-15.8,8.1-35.2,1.7-43.2-14.1C789.6,98.4,796,79,811.8,71l-10.4-20.4c-1.3-2.4-2.5-4.7-4-7
		c-15.8,7.8-34.9,1.5-42.9-14.3c-3.2-6.5-4.1-13.6-3-20.2c-19.3-5.7-40.8-4.4-60.2,5.5l-191.6,97.3
		C501.9,120.3,499.1,129.2,492.5,134.8z M639,401.5c3.1,6.2,0.7,13.9-5.5,17.1c-6.2,3.1-13.9,0.7-17.1-5.5
		c-3.1-6.2-0.7-13.9,5.5-17.1C628.2,392.7,635.9,395.2,639,401.5z M621,365.8c3.1,6.2,0.7,13.9-5.5,17.1c-6.2,3.1-13.9,0.7-17.1-5.5
		c-3.1-6.2-0.7-13.9,5.5-17.1S617.7,359.6,621,365.8z M602.8,330.1c3.1,6.2,0.7,13.9-5.5,17.1c-6.2,3.1-13.9,0.7-17.1-5.5
		c-3.1-6.2-0.7-13.9,5.5-17.1C592,321.4,599.6,323.9,602.8,330.1z M584.6,294.4c3.1,6.2,0.7,13.9-5.5,17.1
		c-6.2,3.1-13.9,0.7-17.1-5.5c-3.1-6.2-0.7-13.9,5.5-17.1C573.8,285.7,581.5,288.1,584.6,294.4z M566.5,258.7
		c3.1,6.2,0.7,13.9-5.5,17.1c-6.2,3.1-13.9,0.7-17.1-5.5c-3.1-6.2-0.7-13.9,5.5-17.1C555.7,249.9,563.3,252.4,566.5,258.7z
		 M548.4,223c3.1,6.2,0.7,13.9-5.5,17.1c-6.2,3.1-13.9,0.7-17.1-5.5c-3.1-6.2-0.7-13.9,5.5-17.1C537.6,214.2,545.2,216.8,548.4,223z
		 M530.2,187.2c3.1,6.2,0.7,13.9-5.5,17.1c-6.2,3.1-13.9,0.7-17.1-5.5c-3.2-6.2-0.7-13.9,5.5-17.1
		C519.4,178.6,527.1,181,530.2,187.2z M512.1,151.6c3.1,6.2,0.7,13.9-5.5,17.1c-6.2,3.1-13.9,0.7-17.1-5.5
		c-3.1-6.2-0.7-13.9,5.5-17.1C501.3,142.8,508.9,145.3,512.1,151.6z"/>
</g>
</svg>
