<?xml version="1.0" encoding="utf-8"?>
<!-- Generator: Adobe Illustrator 26.5.0, SVG Export Plug-In . SVG Version: 6.00 Build 0)  -->
<svg version="1.1" id="Layer_1" xmlns="http://www.w3.org/2000/svg" xmlns:xlink="http://www.w3.org/1999/xlink" x="0px" y="0px"
	 viewBox="0 0 3888.3 659.9" style="enable-background:new 0 0 3888.3 659.9;" xml:space="preserve">
<style type="text/css">
	.st0{fill:#4743B9;}
	.st1{display:none;fill:#4743B9;}
</style>
<g>
	<path d="M1058.9,547l63.6-319.4h-126l15.1-74.3h343l-15.1,74.3h-125.4L1149.9,547H1058.9z"/>
	<path d="M1319.2,547l60.1-302.5h87.2L1406.5,547H1319.2z M1437.9,202.3c-15.4,0-27.8-4.4-37.1-13.2c-9.4-8.8-14-19.6-14-32.4
		c0-15,5.4-27.4,16.1-37.4c10.7-10,24.7-14.9,41.9-14.9c15.4,0,27.9,4.2,37.4,12.6s14.3,18.8,14.3,31.2c0,16.1-5.4,29.2-16.1,39.1
		C1469.7,197.3,1455.6,202.3,1437.9,202.3z"/>
	<path d="M1647.7,551.5c-31.1,0-58.2-5.6-81.3-16.9c-23.1-11.2-41-27-53.7-47.3c-12.7-20.2-19.2-44.1-19.2-71.4
		c0-33.7,7.9-63.8,23.6-90.2c15.7-26.4,37.5-47.3,65.2-62.7c27.8-15.4,59.6-23.1,95.6-23.1c32.2,0,60.1,6.7,83.8,20
		c23.6,13.3,41.1,32.1,52.3,56.5l-74.3,37.1c-6.4-14.2-15.3-24.7-26.7-31.2c-11.5-6.5-25-9.9-40.7-9.9c-17.2,0-32.6,4.2-46.1,12.6
		c-13.5,8.5-24.2,20.1-32,34.9c-7.9,14.8-11.8,32-11.8,51.4c0,20.7,6.1,37.1,18.2,49.2c12.2,12.2,29.5,18.2,52,18.2
		c15.4,0,29.4-3.3,42.2-9.9c12.7-6.5,23.4-16.8,32-30.6l64.7,40.5c-14.2,22.8-34,40.6-59.3,53.4
		C1707,545.1,1678.8,551.5,1647.7,551.5z"/>
	<path d="M1818.1,547l83.2-417.3h87.7L1905.8,547H1818.1z M1905.8,486.2l19.2-108.6l162.5-133.2h114.2l-169.3,141.2l-48.9,36
		L1905.8,486.2z M2045.8,547l-77.6-127.2l61.3-66.9l118.1,194h-101.8V547z"/>
	<path class="st0" d="M2328.7,551.5c-31.4,0-58.8-5.6-81.8-16.9s-41-27-53.7-47.3c-12.7-20.2-19.2-44.1-19.2-71.4
		c0-33.7,7.6-63.8,22.7-90.2c15.1-26.4,36.2-47.3,63-62.7c26.9-15.4,57.6-23.1,92.5-23.1c29.6,0,55.1,5.5,76.4,16.6
		c21.3,11,38,26.4,49.8,46.1c11.8,19.7,17.7,43.3,17.7,70.6c0,7.9-0.5,15.7-1.4,23.6s-2.2,15.4-3.7,22.5h-250.2l9-51.2H2450
		l-36,15.7c3-16.9,2.1-31-2.8-42.5c-4.8-11.5-12.7-20.2-23.6-26.4c-10.9-6.2-24-9.3-39.4-9.3c-19.2,0-35.3,4.6-48.7,13.8
		c-13.3,9.2-23.3,21.8-30.1,38c-6.8,16.1-10.1,34.3-10.1,54.5c0,23.3,6.4,40.6,19.4,52c13,11.5,32.5,17.1,58.8,17.1
		c15.4,0,30.2-2.4,44.4-7.3c14.2-4.8,26.4-11.8,36.5-20.8l36.6,58c-17.7,13.9-37.4,24.1-59.3,30.6
		C2374,548.2,2351.6,551.5,2328.7,551.5z"/>
	<path class="st0" d="M2521,547l60.1-302.5h83.2l-17.4,86.1l-7.9-24.8c13.5-24.3,31.1-41.4,52.9-51.2c21.7-9.8,47.9-14.6,78.2-14.6
		l-15.7,81c-3.8-0.3-7.2-0.7-10.4-0.8c-3.2-0.2-6.4-0.2-9.9-0.2c-25.8,0-46.9,6.4-63.2,19.2c-16.3,12.7-27.3,33.4-32.9,61.9
		l-29.3,146.2H2521V547z"/>
	<path d="M2895,551.5c-23.3,0-44.8-5.4-64.6-16.1c-19.9-10.7-35.8-26.2-47.9-46.4s-18-44.6-18-73.1c0-25.5,4.2-48.9,12.6-70.2
		c8.5-21.3,20.3-39.9,35.7-55.7c15.4-15.7,33.2-28,53.4-36.8c20.2-8.8,42-13.2,65.2-13.2c25.1,0,46.7,4.7,64.6,14
		c18,9.4,31.4,23.9,40.2,43.6c8.8,19.7,11.9,45.1,9.3,76.2c-1.8,35.6-9.2,66.8-21.9,93.7c-12.7,26.9-30,47.5-51.4,62.1
		C2950.8,544.2,2925,551.5,2895,551.5z M2922,479c17.2,0,32.5-4.2,45.8-12.6c13.3-8.4,23.8-20.1,31.4-34.9s11.5-32.1,11.5-52
		c0-20.7-6.1-37-18.2-48.9c-12.2-12.1-29.2-18-50.8-18c-16.9,0-32,4.2-45.6,12.6c-13.5,8.5-24.1,20.1-31.8,34.9s-11.5,32.1-11.5,52
		c0,20.7,6.1,37,18.2,48.9C2883.3,473,2900.3,479,2922,479z M2982.2,547l11.8-60.1l19.6-90l11.8-90l12.4-62.4h87.7L3065.4,547
		L2982.2,547L2982.2,547z"/>
	<path d="M3146.3,547l83.2-417.3h87.7L3234,547H3146.3z"/>
	<path d="M3315.6,547l60.1-302.5h87.2L3402.9,547H3315.6z M3434.3,202.3c-15.4,0-27.8-4.4-37.1-13.2c-9.4-8.8-14-19.6-14-32.4
		c0-15,5.4-27.4,16.1-37.4c10.7-10,24.7-14.9,41.9-14.9c15.4,0,27.9,4.2,37.4,12.6s14.3,18.8,14.3,31.2c0,16.1-5.4,29.2-16.1,39.1
		C3466.1,197.3,3452,202.3,3434.3,202.3z"/>
	<path d="M3621,551.5c-23.3,0-44.8-5.4-64.6-16.1c-19.9-10.7-35.8-26.2-47.9-46.4s-18-44.6-18-73.1c0-25.5,4.2-48.9,12.6-70.2
		c8.5-21.3,20.3-39.9,35.7-55.7c15.4-15.7,33.2-28,53.4-36.8c20.2-8.8,42-13.2,65.2-13.2c25.1,0,46.7,4.7,64.6,14
		c18,9.4,31.4,23.9,40.2,43.6c8.8,19.7,11.9,45.1,9.3,76.2c-1.8,35.6-9.2,66.8-21.9,93.7c-12.7,26.9-30,47.5-51.4,62.1
		C3676.8,544.2,3651,551.5,3621,551.5z M3648,479c17.2,0,32.5-4.2,45.8-12.6c13.3-8.4,23.8-20.1,31.4-34.9s11.5-32.1,11.5-52
		c0-20.7-6.1-37-18.2-48.9c-12.2-12.1-29.2-18-50.8-18c-16.9,0-32,4.2-45.6,12.6c-13.5,8.5-24.1,20.1-31.8,34.9s-11.5,32.1-11.5,52
		c0,20.7,6.1,37,18.2,48.9C3609.3,473,3626.3,479,3648,479z M3708.1,547l11.8-60.1l19.6-90l11.8-90l12.4-62.4h87.7L3791.3,547
		L3708.1,547L3708.1,547z"/>
</g>
<path class="st1" d="M723.2,201c-0.1-0.5-0.1-1,0-1.5c0.1-0.6,0.4-1.1,0.8-1.6c2.6-6.8,9.8-11,17.2-9.4l17.2-84.1l-7.4-1.5
	c-1.5,7.2-8.5,11.8-15.6,10.3c-7.2-1.5-11.8-8.5-10.3-15.6l-12.4-2.5c-1.5,7.2-8.5,11.8-15.6,10.3c-7.2-1.5-11.8-8.5-10.3-15.6
	l-12.4-2.5c-1.5,7.2-8.5,11.8-15.6,10.3c-7.2-1.5-11.8-8.5-10.3-15.6l-12.4-2.5c-1.5,7.2-8.5,11.8-15.6,10.3
	c-7.2-1.5-11.8-8.5-10.3-15.6l-12.4-2.5c-1.5,7.2-8.5,11.8-15.6,10.3c-7.2-1.5-11.8-8.5-10.3-15.6l-12.4-2.5
	c-1.5,7.2-8.5,11.8-15.6,10.3s-11.8-8.5-10.3-15.6l-7.4-1.5l-17.2,84.1c6.7,1.4,11.4,7,12,13.4c1.8,0.5,3,2.4,2.6,4.3
	c-0.4,1.8-1.9,2.9-3.6,2.9c-2.7,6.6-9.8,10.6-17.1,9.1l-88,429.9l7.4,1.5c1.5-7.2,8.5-11.8,15.6-10.3c7.2,1.5,11.8,8.5,10.3,15.6
	l12.4,2.5c1.5-7.2,8.5-11.8,15.6-10.3c7.2,1.5,11.8,8.5,10.3,15.6l12.4,2.5c1.5-7.2,8.5-11.8,15.6-10.3c7.2,1.5,11.8,8.5,10.3,15.6
	l12.4,2.5c1.5-7.2,8.5-11.8,15.6-10.3c7.2,1.5,11.8,8.5,10.3,15.6l12.4,2.5c1.5-7.2,8.5-11.8,15.6-10.3c7.2,1.5,11.8,8.5,10.3,15.6
	l12.4,2.5c1.5-7.2,8.5-11.8,15.6-10.3c7.2,1.5,11.8,8.5,10.3,15.6l7.4,1.5l88-429.9C727.1,216.6,721.9,209,723.2,201z M530.3,163.8
	c-2-0.4-3.3-2.4-2.9-4.4s2.4-3.3,4.4-2.9c2,0.4,3.3,2.4,2.9,4.4S532.3,164.2,530.3,163.8z M541.8,166.2c-2-0.4-3.3-2.4-2.9-4.4
	c0.4-2,2.4-3.3,4.4-2.9c2,0.4,3.3,2.4,2.9,4.4S543.8,166.6,541.8,166.2z M553.3,168.5c-2-0.4-3.3-2.4-2.9-4.4s2.4-3.3,4.4-2.9
	c2,0.4,3.3,2.4,2.9,4.4S555.3,169,553.3,168.5z M564.8,170.9c-2-0.4-3.3-2.4-2.9-4.4s2.4-3.3,4.4-2.9c2,0.4,3.3,2.4,2.9,4.4
	C568.8,170,566.8,171.3,564.8,170.9z M576.3,173.3c-2-0.4-3.3-2.4-2.9-4.4c0.4-2,2.4-3.3,4.4-2.9c2,0.4,3.3,2.4,2.9,4.4
	S578.3,173.7,576.3,173.3z M587.8,175.6c-2-0.4-3.3-2.4-2.9-4.4s2.4-3.3,4.4-2.9c2,0.4,3.3,2.4,2.9,4.4S589.9,176,587.8,175.6z
	 M599.4,178c-2-0.4-3.3-2.4-2.9-4.4s2.4-3.3,4.4-2.9c2,0.4,3.3,2.4,2.9,4.4S601.4,178.4,599.4,178z M610.9,180.3
	c-2-0.4-3.3-2.4-2.9-4.4s2.4-3.3,4.4-2.9c2,0.4,3.3,2.4,2.9,4.4S612.9,180.8,610.9,180.3z M622.4,182.7c-2-0.4-3.3-2.4-2.9-4.4
	s2.4-3.3,4.4-2.9s3.3,2.4,2.9,4.4S624.4,183.1,622.4,182.7z M633.9,185.1c-2-0.4-3.3-2.4-2.9-4.4s2.4-3.3,4.4-2.9
	c2,0.4,3.3,2.4,2.9,4.4S635.9,185.5,633.9,185.1z M645.4,187.4c-2-0.4-3.3-2.4-2.9-4.4c0.4-2,2.4-3.3,4.4-2.9c2,0.4,3.3,2.4,2.9,4.4
	S647.4,187.8,645.4,187.4z M656.9,189.8c-2-0.4-3.3-2.4-2.9-4.4s2.4-3.3,4.4-2.9c2,0.4,3.3,2.4,2.9,4.4S659,190.2,656.9,189.8z
	 M668.5,192.1c-2-0.4-3.3-2.4-2.9-4.4s2.4-3.3,4.4-2.9c2,0.4,3.3,2.4,2.9,4.4C672.4,191.2,670.5,192.5,668.5,192.1z M680,194.5
	c-2-0.4-3.3-2.4-2.9-4.4c0.4-2,2.4-3.3,4.4-2.9c2,0.4,3.3,2.4,2.9,4.4S682,194.9,680,194.5z M691.5,196.9c-2-0.4-3.3-2.4-2.9-4.4
	s2.4-3.3,4.4-2.9c2,0.4,3.3,2.4,2.9,4.4S693.5,197.3,691.5,196.9z M703,199.2c-2-0.4-3.3-2.4-2.9-4.4s2.4-3.3,4.4-2.9
	c2,0.4,3.3,2.4,2.9,4.4S705,199.6,703,199.2z M714.5,201.6c-2-0.4-3.3-2.4-2.9-4.4s2.4-3.3,4.4-2.9c2,0.4,3.3,2.4,2.9,4.4
	S716.6,202,714.5,201.6z"/>
<path class="st1" d="M196.4,173.2l88,429.9l7.4-1.5c-1.5-7.2,3.1-14.2,10.3-15.6c7.2-1.5,14.2,3.1,15.6,10.3l12.4-2.5
	c-1.5-7.2,3.1-14.2,10.3-15.6c7.2-1.5,14.2,3.1,15.6,10.3l12.4-2.5c-1.5-7.2,3.1-14.2,10.3-15.6c7.2-1.5,14.2,3.1,15.6,10.3
	l12.4-2.5c-1.5-7.2,3.1-14.2,10.3-15.6c7.2-1.5,14.2,3.1,15.6,10.3l12.4-2.5c-1.5-7.2,3.1-14.2,10.3-15.6
	c7.2-1.5,14.2,3.1,15.6,10.3l12.4-2.5c-1.5-7.2,3.1-14.2,10.3-15.6c7.2-1.5,14.2,3.1,15.6,10.3l7.4-1.5l-88-429.9
	c-7.3,1.5-16.5-2.7-17.7-11.7c-1.3-9.5,4.9-16.7,11.6-18l-17.2-84.1l-7.4,1.5c1.5,7.2-3.1,14.2-10.3,15.6
	c-7.2,1.5-14.2-3.1-15.6-10.3l-12.4,2.5c1.5,7.2-3.1,14.2-10.3,15.6c-7.2,1.5-14.2-3.1-15.6-10.3L321.5,29
	c1.5,7.2-3.1,14.2-10.3,15.6c-7.2,1.5-14.2-3.1-15.6-10.3l-12.4,2.5c1.5,7.2-3.1,14.2-10.3,15.6c-7.2,1.5-14.2-3.1-15.6-10.3
	l-12.4,2.5c1.5,7.2-3.1,14.2-10.3,15.6c-7.2,1.5-14.2-3.1-15.6-10.3l-12.4,2.5c1.5,7.2-3.1,14.2-10.3,15.6
	c-7.2,1.5-14.2-3.1-15.6-10.3l-7.4,1.5l17.2,84.1c7.4-1.5,14.6,2.6,17.2,9.4c0.4,0.5,0.7,1,0.8,1.6c0.1,0.5,0.1,1,0,1.5
	C209.5,164,204.3,171.6,196.4,173.2z M395.5,116.2c-0.6-2.9,1.3-5.8,4.2-6.4c2.9-0.6,5.8,1.3,6.4,4.2c0.6,2.9-1.3,5.8-4.2,6.4
	C398.9,121,396.1,119.1,395.5,116.2z M378.8,119.6c-0.6-2.9,1.3-5.8,4.2-6.4c2.9-0.6,5.8,1.3,6.4,4.2c0.6,2.9-1.3,5.8-4.2,6.4
	C382.2,124.4,379.4,122.5,378.8,119.6z M362.1,123c-0.6-2.9,1.3-5.8,4.2-6.4c2.9-0.6,5.8,1.3,6.4,4.2c0.6,2.9-1.3,5.8-4.2,6.4
	C365.6,127.8,362.7,125.9,362.1,123z M345.5,126.4c-0.6-2.9,1.3-5.8,4.2-6.4s5.8,1.3,6.4,4.2c0.6,2.9-1.3,5.8-4.2,6.4
	S346.1,129.3,345.5,126.4z M328.8,129.8c-0.6-2.9,1.3-5.8,4.2-6.4c2.9-0.6,5.8,1.3,6.4,4.2s-1.3,5.8-4.2,6.4
	C332.2,134.6,329.4,132.7,328.8,129.8z M312.1,133.2c-0.6-2.9,1.3-5.8,4.2-6.4s5.8,1.3,6.4,4.2c0.6,2.9-1.3,5.8-4.2,6.4
	C315.6,138,312.7,136.1,312.1,133.2z M295.5,136.6c-0.6-2.9,1.3-5.8,4.2-6.4c2.9-0.6,5.8,1.3,6.4,4.2c0.6,2.9-1.3,5.8-4.2,6.4
	C298.9,141.4,296.1,139.5,295.5,136.6z M278.8,140c-0.6-2.9,1.3-5.8,4.2-6.4s5.8,1.3,6.4,4.2c0.6,2.9-1.3,5.8-4.2,6.4
	C282.2,144.8,279.4,143,278.8,140z M262.1,143.5c-0.6-2.9,1.3-5.8,4.2-6.4c2.9-0.6,5.8,1.3,6.4,4.2c0.6,2.9-1.3,5.8-4.2,6.4
	C265.6,148.3,262.7,146.4,262.1,143.5z M245.5,146.9c-0.6-2.9,1.3-5.8,4.2-6.4c2.9-0.6,5.8,1.3,6.4,4.2c0.6,2.9-1.3,5.8-4.2,6.4
	C248.9,151.7,246.1,149.8,245.5,146.9z M228.8,150.3c-0.6-2.9,1.3-5.8,4.2-6.4s5.8,1.3,6.4,4.2c0.6,2.9-1.3,5.8-4.2,6.4
	S229.4,153.2,228.8,150.3z M212.1,153.7c-0.6-2.9,1.3-5.8,4.2-6.4c2.9-0.6,5.8,1.3,6.4,4.2c0.6,2.9-1.3,5.8-4.2,6.4
	C215.6,158.5,212.7,156.6,212.1,153.7z"/>
<g>
	<path class="st0" d="M486.5,141.3c0.3,0.4-9.8,5-9.9,4.5c-8.7,1.7-17.5-1.8-22.8-8.8l-397,171.5c-19.7,8.5-34.3,24-42.1,42.2
		c5.8,3.3,10.6,8.4,13.5,15c6.9,16-0.4,34.5-16.2,41.5c0.8,2.5,1.7,4.9,2.8,7.4l9,20.7c16.1-7,34.8,0.5,41.7,16.5
		c7,16.1-0.5,34.8-16.5,41.7L61,521.6c16.1-7,34.8,0.5,41.7,16.5c7,16.1-0.5,34.8-16.5,41.7l9,20.7c1.1,2.4,2.2,4.8,3.5,7.1
		c16-6.7,34.5,0.7,41.4,16.7c2.8,6.6,3.2,13.6,1.7,20.1c18.7,6.8,39.9,6.8,59.6-1.7l397-171.5c-1.1-1.5-2.3-2.9-2.9-4.8
		c-3.3-10.9,0.9-22.8,12.7-27.9c11.8-5.1,24.4-1.3,29.7,9.1c0.6,1.3,1.8,3.8,1.8,5.7l194.6-84.1c19.7-8.5,34.3-24,42.1-42.2
		c-5.8-3.3-10.6-8.4-13.5-15c-6.9-16,0.4-34.5,16.2-41.5c-0.8-2.5-1.7-4.9-2.8-7.4l-9-20.7c-16.1,7-34.8-0.5-41.7-16.5
		c-7-16.1,0.5-34.8,16.5-41.7L830,156.2c-16.1,7-34.8-0.5-41.7-16.5c-7-16.1,0.5-34.8,16.5-41.7l-9-20.7c-1.1-2.4-2.2-4.8-3.5-7.1
		c-16,6.7-34.5-0.7-41.4-16.7c-2.8-6.6-3.2-13.6-1.7-20.1c-18.7-6.8-39.9-6.8-59.6,1.7l-194.6,84.1
		C496.6,127.6,493.3,136.1,486.5,141.3z M614.4,412.9c2.7,6.3-0.2,13.7-6.5,16.5c-6.3,2.7-13.7-0.2-16.5-6.5
		c-2.7-6.3,0.2-13.7,6.5-16.5C604.3,403.6,611.7,406.5,614.4,412.9z M598.8,376.6c2.7,6.3-0.2,13.7-6.5,16.5
		c-6.3,2.7-13.7-0.2-16.5-6.5c-2.7-6.3,0.2-13.7,6.5-16.5C588.6,367.3,596,370.3,598.8,376.6z M583.1,340.3
		c2.7,6.3-0.2,13.7-6.5,16.5c-6.3,2.7-13.7-0.2-16.5-6.5c-2.7-6.3,0.2-13.7,6.5-16.5C573,331.1,580.3,334,583.1,340.3z M567.4,304.1
		c2.7,6.3-0.2,13.7-6.5,16.5c-6.3,2.7-13.7-0.2-16.5-6.5c-2.7-6.3,0.2-13.7,6.5-16.5C557.3,294.8,564.7,297.7,567.4,304.1z
		 M551.7,267.8c2.7,6.3-0.2,13.7-6.5,16.5c-6.3,2.7-13.7-0.2-16.5-6.5c-2.7-6.3,0.2-13.7,6.5-16.5
		C541.6,258.5,549,261.4,551.7,267.8z M536.1,231.5c2.7,6.3-0.2,13.7-6.5,16.5c-6.3,2.7-13.7-0.2-16.5-6.5
		c-2.7-6.3,0.2-13.7,6.5-16.5C526,222.2,533.3,225.2,536.1,231.5z M520.4,195.2c2.7,6.3-0.2,13.7-6.5,16.5
		c-6.3,2.7-13.7-0.2-16.5-6.5s0.2-13.7,6.5-16.5C510.3,186,517.7,188.9,520.4,195.2z M504.7,159c2.7,6.3-0.2,13.7-6.5,16.5
		c-6.3,2.7-13.7-0.2-16.5-6.5c-2.7-6.3,0.2-13.7,6.5-16.5C494.6,149.7,502,152.6,504.7,159z"/>
</g>
</svg>
