<?xml version="1.0" encoding="utf-8"?>
<!-- Generator: Adobe Illustrator 26.5.0, SVG Export Plug-In . SVG Version: 6.00 Build 0)  -->
<svg version="1.1" id="Layer_1" xmlns="http://www.w3.org/2000/svg" xmlns:xlink="http://www.w3.org/1999/xlink" x="0px" y="0px"
	 viewBox="0 0 3888.3 679.4" style="enable-background:new 0 0 3888.3 679.4;" xml:space="preserve">
<style type="text/css">
	.st0{fill:#FFFFFF;}
	.st1{fill:#C9C9C9;}
</style>
<g>
	<path class="st0" d="M1051.9,555.8l63.6-319.4h-126l15.1-74.3h343l-15.1,74.3h-125.4l-64.2,319.4H1051.9z"/>
	<path class="st0" d="M1312.2,555.8l60.1-302.5h87.2l-60,302.5H1312.2z M1430.9,211.1c-15.4,0-27.8-4.4-37.1-13.2
		c-9.4-8.8-14-19.6-14-32.4c0-15,5.4-27.4,16.1-37.4s24.7-14.9,41.9-14.9c15.4,0,27.9,4.2,37.4,12.6s14.3,18.8,14.3,31.2
		c0,16.1-5.4,29.2-16.1,39.1C1462.7,206.1,1448.6,211.1,1430.9,211.1z"/>
	<path class="st0" d="M1640.7,560.3c-31.1,0-58.2-5.6-81.3-16.9c-23.1-11.2-41-27-53.7-47.3c-12.7-20.2-19.2-44.1-19.2-71.4
		c0-33.7,7.9-63.8,23.6-90.2s37.5-47.3,65.2-62.7c27.8-15.4,59.6-23.1,95.6-23.1c32.2,0,60.1,6.7,83.8,20
		c23.6,13.3,41.1,32.1,52.3,56.5l-74.3,37.1c-6.4-14.2-15.3-24.7-26.7-31.2c-11.5-6.5-25-9.9-40.7-9.9c-17.2,0-32.6,4.2-46.1,12.6
		c-13.5,8.5-24.2,20.1-32,34.9c-7.9,14.8-11.8,32-11.8,51.4c0,20.7,6.1,37.1,18.2,49.2c12.2,12.2,29.5,18.2,52,18.2
		c15.4,0,29.4-3.3,42.2-9.9c12.7-6.5,23.4-16.8,32-30.6l64.7,40.5c-14.2,22.8-34,40.6-59.3,53.4
		C1700,553.9,1671.8,560.3,1640.7,560.3z"/>
	<path class="st0" d="M1811.1,555.8l83.2-417.3h87.7l-83.2,417.3H1811.1z M1898.8,495l19.2-108.6l162.5-133.2h114.2l-169.3,141.2
		l-48.9,36L1898.8,495z M2038.8,555.8l-77.6-127.2l61.3-66.9l118.1,194L2038.8,555.8L2038.8,555.8z"/>
	<path class="st1" d="M2321.7,560.3c-31.4,0-58.8-5.6-81.8-16.9s-41-27-53.7-47.3c-12.7-20.2-19.2-44.1-19.2-71.4
		c0-33.7,7.6-63.8,22.7-90.2c15.1-26.4,36.2-47.3,63-62.7c26.9-15.4,57.6-23.1,92.5-23.1c29.6,0,55.1,5.5,76.4,16.6
		c21.3,11,38,26.4,49.8,46.1s17.7,43.3,17.7,70.6c0,7.9-0.5,15.7-1.4,23.6s-2.2,15.4-3.7,22.5h-250.2l9-51.2H2443l-36,15.7
		c3-16.9,2.1-31-2.8-42.5c-4.8-11.5-12.7-20.2-23.6-26.4c-10.9-6.2-24-9.3-39.4-9.3c-19.2,0-35.3,4.6-48.7,13.8
		c-13.3,9.2-23.3,21.8-30.1,38c-6.8,16.1-10.1,34.3-10.1,54.5c0,23.3,6.4,40.6,19.4,52c13,11.5,32.5,17.1,58.8,17.1
		c15.4,0,30.2-2.4,44.4-7.3c14.2-4.8,26.4-11.8,36.5-20.8l36.6,58c-17.7,13.9-37.4,24.1-59.3,30.6
		C2367,557,2344.6,560.3,2321.7,560.3z"/>
	<path class="st1" d="M2514,555.8l60.1-302.5h83.2l-17.4,86.1l-7.9-24.8c13.5-24.3,31.1-41.4,52.9-51.2
		c21.7-9.8,47.9-14.6,78.2-14.6l-15.7,81c-3.8-0.3-7.2-0.7-10.4-0.8c-3.2-0.2-6.4-0.2-9.9-0.2c-25.8,0-46.9,6.4-63.2,19.2
		c-16.3,12.7-27.3,33.4-32.9,61.9l-29.3,146.2H2514V555.8z"/>
	<path class="st0" d="M2888,560.3c-23.3,0-44.8-5.4-64.6-16.1c-19.9-10.7-35.8-26.2-47.9-46.4c-12.1-20.2-18-44.6-18-73.1
		c0-25.5,4.2-48.9,12.6-70.2c8.5-21.3,20.3-39.9,35.7-55.7c15.4-15.7,33.2-28,53.4-36.8c20.2-8.8,42-13.2,65.2-13.2
		c25.1,0,46.7,4.7,64.6,14c18,9.4,31.4,23.9,40.2,43.6s11.9,45.1,9.3,76.2c-1.8,35.6-9.2,66.8-21.9,93.7
		c-12.7,26.9-30,47.5-51.4,62.1C2943.8,553,2918,560.3,2888,560.3z M2915,487.8c17.2,0,32.5-4.2,45.8-12.6s23.8-20.1,31.4-34.9
		s11.5-32.1,11.5-52c0-20.7-6.1-37-18.2-48.9c-12.2-12.1-29.2-18-50.8-18c-16.9,0-32,4.2-45.6,12.6c-13.5,8.5-24.1,20.1-31.8,34.9
		s-11.5,32.1-11.5,52c0,20.7,6.1,37,18.2,48.9C2876.3,481.8,2893.3,487.8,2915,487.8z M2975.2,555.8l11.8-60.1l19.6-90l11.8-90
		l12.4-62.4h87.7l-60.1,302.5H2975.2L2975.2,555.8z"/>
	<path class="st0" d="M3139.3,555.8l83.2-417.3h87.7L3227,555.8H3139.3z"/>
	<path class="st0" d="M3308.6,555.8l60.1-302.5h87.2l-60,302.5H3308.6z M3427.3,211.1c-15.4,0-27.8-4.4-37.1-13.2
		c-9.4-8.8-14-19.6-14-32.4c0-15,5.4-27.4,16.1-37.4c10.7-10,24.7-14.9,41.9-14.9c15.4,0,27.9,4.2,37.4,12.6s14.3,18.8,14.3,31.2
		c0,16.1-5.4,29.2-16.1,39.1C3459.1,206.1,3445,211.1,3427.3,211.1z"/>
	<path class="st0" d="M3614,560.3c-23.3,0-44.8-5.4-64.6-16.1c-19.9-10.7-35.8-26.2-47.9-46.4c-12.1-20.2-18-44.6-18-73.1
		c0-25.5,4.2-48.9,12.6-70.2c8.5-21.3,20.3-39.9,35.7-55.7c15.4-15.7,33.2-28,53.4-36.8c20.2-8.8,42-13.2,65.2-13.2
		c25.1,0,46.7,4.7,64.6,14c18,9.4,31.4,23.9,40.2,43.6s11.9,45.1,9.3,76.2c-1.8,35.6-9.2,66.8-21.9,93.7
		c-12.7,26.9-30,47.5-51.4,62.1C3669.8,553,3644,560.3,3614,560.3z M3641,487.8c17.2,0,32.5-4.2,45.8-12.6s23.8-20.1,31.4-34.9
		s11.5-32.1,11.5-52c0-20.7-6.1-37-18.2-48.9c-12.2-12.1-29.2-18-50.8-18c-16.9,0-32,4.2-45.6,12.6c-13.5,8.5-24.1,20.1-31.8,34.9
		s-11.5,32.1-11.5,52c0,20.7,6.1,37,18.2,48.9C3602.3,481.8,3619.3,487.8,3641,487.8z M3701.1,555.8l11.8-60.1l19.6-90l11.8-90
		l12.4-62.4h87.7l-60.1,302.5H3701.1L3701.1,555.8z"/>
</g>
<g>
	<path class="st0" d="M485.5,134.3c0.3,0.4-9.6,5.7-9.7,5.2c-8.7,2.3-17.8-0.7-23.6-7.5L61.4,330.5C42,340.4,28.2,357,21.5,375.9
		c6.1,3,11.3,7.8,14.6,14.3c8,15.8,1.8,34.9-13.8,43c1,2.5,2,4.8,3.3,7.3L36,460.9c15.8-8.1,35.2-1.7,43.2,14.1
		c8.1,15.8,1.7,35.2-14.1,43.2l13.9,27.7c15.8-8.1,35.2-1.7,43.2,14.1c8.1,15.8,1.7,35.2-14.1,43.2l10.4,20.4c1.3,2.4,2.5,4.7,4,7
		c15.8-7.8,34.9-1.5,42.9,14.3c3.2,6.5,4.1,13.6,3,20.2c19.3,5.7,40.8,4.4,60.2-5.5L619.5,461c-1.2-1.4-2.5-2.8-3.2-4.7
		c-4-10.8-0.5-23.1,11.1-29c11.6-5.9,24.6-2.9,30.6,7.3c0.7,1.3,2.1,3.7,2.2,5.7l191.6-97.3c19.4-9.8,33.2-26.4,39.9-45.3
		c-6.1-3-11.3-7.8-14.6-14.3c-8-15.8-1.8-34.9,13.8-43c-1-2.5-2-4.8-3.3-7.3l-10.4-20.4c-15.8,8.1-35.2,1.7-43.2-14.1
		c-8.1-15.8-1.7-35.2,14.1-43.2l-14-27.6c-15.8,8.1-35.2,1.7-43.2-14.1c-8.1-15.8-1.7-35.2,14.1-43.2l-10.4-20.4
		c-1.3-2.4-2.5-4.7-4-7c-15.8,7.8-34.9,1.5-42.9-14.3c-3.2-6.5-4.1-13.6-3-20.2c-19.3-5.7-40.8-4.4-60.2,5.5l-191.6,97.3
		C494.9,119.8,492.1,128.6,485.5,134.3z M632,401c3.1,6.2,0.7,13.9-5.5,17.1c-6.2,3.1-13.9,0.7-17.1-5.5c-3.1-6.2-0.7-13.9,5.5-17.1
		C621.2,392.2,628.9,394.7,632,401z M614,365.3c3.1,6.2,0.7,13.9-5.5,17.1c-6.2,3.1-13.9,0.7-17.1-5.5c-3.1-6.2-0.7-13.9,5.5-17.1
		C603.1,356.5,610.7,359.1,614,365.3z M595.8,329.5c3.1,6.2,0.7,13.9-5.5,17.1c-6.2,3.1-13.9,0.7-17.1-5.5
		c-3.1-6.2-0.7-13.9,5.5-17.1C585,320.9,592.6,323.3,595.8,329.5z M577.6,293.9c3.1,6.2,0.7,13.9-5.5,17.1
		c-6.2,3.1-13.9,0.7-17.1-5.5c-3.1-6.2-0.7-13.9,5.5-17.1C566.8,285.1,574.5,287.6,577.6,293.9z M559.5,258.2
		c3.1,6.2,0.7,13.9-5.5,17.1c-6.2,3.1-13.9,0.7-17.1-5.5c-3.1-6.2-0.7-13.9,5.5-17.1C548.7,249.4,556.3,251.9,559.5,258.2z
		 M541.4,222.4c3.1,6.2,0.7,13.9-5.5,17.1c-6.2,3.1-13.9,0.7-17.1-5.5c-3.1-6.2-0.7-13.9,5.5-17.1
		C530.6,213.7,538.2,216.2,541.4,222.4z M523.2,186.7c3.1,6.2,0.7,13.9-5.5,17.1c-6.2,3.1-13.9,0.7-17.1-5.5
		c-3.2-6.2-0.7-13.9,5.5-17.1C512.4,178,520.1,180.5,523.2,186.7z M505.1,151.1c3.1,6.2,0.7,13.9-5.5,17.1
		c-6.2,3.1-13.9,0.7-17.1-5.5c-3.1-6.2-0.7-13.9,5.5-17.1C494.3,142.3,501.9,144.8,505.1,151.1z"/>
</g>
</svg>
