<?xml version="1.0" encoding="utf-8"?>
<!-- Generator: Adobe Illustrator 26.5.0, SVG Export Plug-In . SVG Version: 6.00 Build 0)  -->
<svg version="1.1" id="Layer_1" xmlns="http://www.w3.org/2000/svg" xmlns:xlink="http://www.w3.org/1999/xlink" x="0px" y="0px"
	 viewBox="0 0 3888.3 659.9" style="enable-background:new 0 0 3888.3 659.9;" xml:space="preserve">
<style type="text/css">
	.st0{opacity:0.25;fill:#FFFFFF;}
	.st1{opacity:0.55;fill:#FFFFFF;}
	.st2{fill:#FFFFFF;}
	.st3{fill:#E0E0E0;}
	.st4{enable-background:new    ;}
</style>
<path class="st0" d="M400.8,628.8c169.2,0,306.4-137.2,306.4-306.4C707.2,153.1,570.1,16,400.8,16C231.6,15.8,94.4,153,94.4,322.4
	C94.4,491.6,231.6,628.8,400.8,628.8z"/>
<path class="st1" d="M621.2,628.8c169.2,0,306.4-137.2,306.4-306.4C927.6,153.1,790.5,16,621.2,16C452,15.8,314.8,153,314.8,322.4
	C314.8,491.6,452,628.8,621.2,628.8z"/>
<path class="st2" d="M833.6,16c-84.5,0-161,34.1-216.4,89.4c55.6,55.5,90,132.2,90,217c0,84.7-34.4,161.4-90,216.9
	c55.4,55.3,131.9,89.5,216.4,89.5c169.2,0,306.4-137.2,306.4-306.4C1140,153.1,1002.9,16,833.6,16z"/>
<path class="st3" d="M707.2,322.4c0-84.8-34.4-161.5-90-217c-55.6,55.5-90,132.2-90,217c0,84.7,34.4,161.4,90,216.9
	C672.8,483.8,707.2,407.1,707.2,322.4z"/>
<g class="st4">
	<path class="st2" d="M1346.2,524.3l55.4-278.3h-109.8l13.2-64.7h298.9l-13.2,64.7h-109.3l-55.9,278.3H1346.2z"/>
	<path class="st2" d="M1573,524.3l52.4-263.6h76L1649,524.3H1573z M1676.4,223.9c-13.4,0-24.2-3.8-32.3-11.5
		c-8.2-7.7-12.2-17.1-12.2-28.2c0-13.1,4.7-23.9,14-32.6c9.3-8.7,21.5-13,36.5-13c13.4,0,24.3,3.7,32.6,11s12.5,16.4,12.5,27.2
		c0,14-4.7,25.4-14,34.1C1704.1,219.6,1691.8,223.9,1676.4,223.9z"/>
	<path class="st2" d="M1859.2,528.2c-27.1,0-50.7-4.9-70.8-14.7s-35.7-23.5-46.8-41.2c-11.1-17.6-16.7-38.4-16.7-62.2
		c0-29.4,6.9-55.6,20.6-78.6s32.7-41.2,56.8-54.6c24.2-13.4,51.9-20.1,83.3-20.1c28.1,0,52.4,5.8,73,17.4
		c20.6,11.6,35.8,28,45.6,49.2l-64.7,32.3c-5.6-12.4-13.3-21.5-23.3-27.2c-10-5.7-21.8-8.6-35.5-8.6c-15,0-28.4,3.7-40.2,11
		c-11.8,7.4-21.1,17.5-27.9,30.4c-6.9,12.9-10.3,27.9-10.3,44.8c0,18,5.3,32.3,15.9,42.9c10.6,10.6,25.7,15.9,45.3,15.9
		c13.4,0,25.6-2.9,36.8-8.6c11.1-5.7,20.4-14.6,27.9-26.7l56.4,35.3c-12.4,19.9-29.6,35.4-51.7,46.5
		C1910.9,522.6,1886.3,528.2,1859.2,528.2z"/>
	<path class="st2" d="M2007.7,524.3l72.5-363.6h76.4l-72.5,363.6H2007.7z M2084.1,471.4l16.7-94.6l141.6-116.1h99.5l-147.5,123
		l-42.6,31.4L2084.1,471.4z M2206.1,524.3l-67.6-110.7l53.4-58.3l102.9,169H2206.1z"/>
	<path class="st2" d="M2452.6,528.2c-27.4,0-51.2-4.9-71.3-14.7s-35.7-23.5-46.8-41.2c-11.1-17.6-16.7-38.4-16.7-62.2
		c0-29.4,6.6-55.6,19.8-78.6c13.2-23,31.5-41.2,54.9-54.6c23.4-13.4,50.2-20.1,80.6-20.1c25.8,0,48,4.8,66.6,14.5
		c18.6,9.6,33.1,23,43.4,40.2s15.4,37.7,15.4,61.5c0,6.9-0.4,13.7-1.2,20.6c-0.8,6.9-1.9,13.4-3.2,19.6h-218l7.8-44.6h174.4
		l-31.4,13.7c2.6-14.7,1.8-27-2.4-37c-4.2-10-11.1-17.6-20.6-23c-9.5-5.4-20.9-8.1-34.3-8.1c-16.7,0-30.8,4-42.4,12
		c-11.6,8-20.3,19-26.2,33.1c-5.9,14-8.8,29.9-8.8,47.5c0,20.3,5.6,35.4,16.9,45.3c11.3,10,28.3,14.9,51.2,14.9
		c13.4,0,26.3-2.1,38.7-6.4c12.4-4.2,23-10.3,31.8-18.1l31.9,50.5c-15.4,12.1-32.6,21-51.7,26.7
		C2492,525.3,2472.5,528.2,2452.6,528.2z"/>
	<path class="st2" d="M2620.1,524.3l52.4-263.6h72.5l-15.2,75l-6.9-21.6c11.8-21.2,27.1-36.1,46.1-44.6
		c18.9-8.5,41.7-12.7,68.1-12.7l-13.7,70.6c-3.3-0.3-6.3-0.6-9.1-0.7c-2.8-0.2-5.6-0.2-8.6-0.2c-22.5,0-40.9,5.6-55.1,16.7
		c-14.2,11.1-23.8,29.1-28.7,53.9l-25.5,127.4H2620.1z"/>
	<path class="st2" d="M2946,528.2c-20.3,0-39-4.7-56.3-14c-17.3-9.3-31.2-22.8-41.7-40.4c-10.5-17.6-15.7-38.9-15.7-63.7
		c0-22.2,3.7-42.6,11-61.2c7.4-18.6,17.7-34.8,31.1-48.5c13.4-13.7,28.9-24.4,46.5-32.1c17.6-7.7,36.6-11.5,56.8-11.5
		c21.9,0,40.7,4.1,56.3,12.2c15.7,8.2,27.4,20.8,35,38c7.7,17.2,10.4,39.3,8.1,66.4c-1.6,31-8,58.2-19.1,81.6
		c-11.1,23.4-26.1,41.4-44.8,54.1C2994.6,521.8,2972.1,528.2,2946,528.2z M2969.5,465c15,0,28.3-3.7,39.9-11
		c11.6-7.3,20.7-17.5,27.4-30.4c6.7-12.9,10-28,10-45.3c0-18-5.3-32.2-15.9-42.6c-10.6-10.5-25.4-15.7-44.3-15.7
		c-14.7,0-27.9,3.7-39.7,11c-11.8,7.4-21,17.5-27.7,30.4c-6.7,12.9-10,28-10,45.3c0,18,5.3,32.2,15.9,42.6
		C2935.8,459.8,2950.6,465,2969.5,465z M3022,524.3l10.3-52.4l17.1-78.4l10.3-78.4l10.8-54.4h76.4l-52.4,263.6H3022z"/>
	<path class="st2" d="M3165,524.3l72.5-363.6h76.4l-72.5,363.6H3165z"/>
	<path class="st2" d="M3312.5,524.3l52.4-263.6h76l-52.4,263.6H3312.5z M3415.9,223.9c-13.4,0-24.2-3.8-32.3-11.5
		c-8.2-7.7-12.2-17.1-12.2-28.2c0-13.1,4.7-23.9,14-32.6c9.3-8.7,21.5-13,36.5-13c13.4,0,24.3,3.7,32.6,11s12.5,16.4,12.5,27.2
		c0,14-4.7,25.4-14,34.1C3443.6,219.6,3431.3,223.9,3415.9,223.9z"/>
	<path class="st2" d="M3578.6,528.2c-20.3,0-39-4.7-56.3-14c-17.3-9.3-31.2-22.8-41.7-40.4c-10.5-17.6-15.7-38.9-15.7-63.7
		c0-22.2,3.7-42.6,11-61.2c7.4-18.6,17.7-34.8,31.1-48.5c13.4-13.7,28.9-24.4,46.5-32.1c17.6-7.7,36.6-11.5,56.8-11.5
		c21.9,0,40.7,4.1,56.3,12.2c15.7,8.2,27.4,20.8,35,38c7.7,17.2,10.4,39.3,8.1,66.4c-1.6,31-8,58.2-19.1,81.6
		c-11.1,23.4-26.1,41.4-44.8,54.1C3627.2,521.8,3604.7,528.2,3578.6,528.2z M3602.1,465c15,0,28.3-3.7,39.9-11
		c11.6-7.3,20.7-17.5,27.4-30.4c6.7-12.9,10-28,10-45.3c0-18-5.3-32.2-15.9-42.6c-10.6-10.5-25.4-15.7-44.3-15.7
		c-14.7,0-27.9,3.7-39.7,11c-11.8,7.4-21,17.5-27.7,30.4c-6.7,12.9-10,28-10,45.3c0,18,5.3,32.2,15.9,42.6
		C3568.4,459.8,3583.2,465,3602.1,465z M3654.5,524.3l10.3-52.4l17.1-78.4l10.3-78.4l10.8-54.4h76.4l-52.4,263.6H3654.5z"/>
</g>
</svg>
