<svg xmlns="http://www.w3.org/2000/svg" viewBox="0 0 356 356" width="356" height="356"><defs><clipPath clipPathUnits="userSpaceOnUse" id="cp1"><path d="M0 0L356 0L356 356L0 356Z" /></clipPath></defs><style>tspan { white-space:pre }.shp0 { fill: #ffffff } </style><g clip-path="url(#cp1)"><path fill-rule="evenodd" class="shp0" d="M351.6 178.87C351.6 275.23 273.49 353.34 177.14 353.34C80.78 353.34 2.67 275.23 2.67 178.87C2.67 82.52 80.78 4.41 177.14 4.41C273.49 4.41 351.6 82.52 351.6 178.87ZM274.02 189.84C220.17 156.75 141.4 147.44 78.03 166.67C70.85 168.85 66.79 176.44 68.96 183.63C71.15 190.81 78.74 194.86 85.94 192.69C141.41 175.85 212.9 184.2 259.79 213.02C266.18 216.95 274.55 214.95 278.5 208.54C282.43 202.16 280.41 193.78 274.02 189.84ZM253.54 241.1C207.55 213 150.55 206.46 84.09 221.65C78.22 222.99 74.57 228.82 75.91 234.67C77.25 240.52 83.08 244.19 88.93 242.85C149.66 228.97 201.23 234.63 242.2 259.67C247.32 262.8 254.01 261.19 257.15 256.05C260.28 250.93 258.67 244.23 253.54 241.1ZM302.7 153.37C307.29 145.63 304.75 135.61 296.99 131.01C232.25 92.58 129.81 88.97 68.18 107.67C59.55 110.29 54.69 119.4 57.3 128.03C59.91 136.65 69.03 141.52 77.65 138.9C131.34 122.61 224.1 125.68 280.34 159.08C288.07 163.68 298.1 161.12 302.7 153.37Z" /></g></svg>